<?xml version="1.0" encoding="utf-8"?>
<!-- Generator: Adobe Illustrator 23.0.0, SVG Export Plug-In . SVG Version: 6.00 Build 0)  -->
<svg version="1.1" id="Objects" xmlns="http://www.w3.org/2000/svg" xmlns:xlink="http://www.w3.org/1999/xlink" x="0px" y="0px"
	 viewBox="0 0 500 500" style="enable-background:new 0 0 500 500;" xml:space="preserve">
<style type="text/css">
	.st0{fill:#FFFEBD;}
	.st1{fill:url(#SVGID_1_);}
	.st2{fill:url(#SVGID_2_);}
	.st3{fill:url(#SVGID_3_);}
	.st4{fill:#FFFFFF;}
	.st5{fill:url(#SVGID_4_);}
	.st6{fill:url(#SVGID_5_);}
	.st7{fill:url(#SVGID_6_);}
	.st8{fill:url(#SVGID_7_);}
</style>
<g>
	<g>
		<path class="st0" d="M258.33,411.77c-74.72-5.42-131.1-70.62-125.68-145.34c5.42-74.72,70.62-131.1,145.34-125.68
			c74.72,5.42,131.1,70.62,125.68,145.34C398.25,360.81,333.05,417.19,258.33,411.77z M277.85,142.75
			c-73.62-5.34-137.86,50.21-143.2,123.83c-5.34,73.62,50.21,137.86,123.83,143.2c73.62,5.34,137.86-50.21,143.2-123.83
			C407.02,212.33,351.47,148.09,277.85,142.75z"/>
	</g>
	<g>
		<path class="st0" d="M278.11,132.92c-1.11-0.08-2.2-0.4-3.21-0.94c-1.88-1.01-3.25-2.69-3.85-4.72c-1.26-4.21,1.14-8.66,5.35-9.92
			l97.97-29.26c2.03-0.61,4.19-0.38,6.06,0.63c1.88,1.01,3.25,2.69,3.85,4.72c0.61,2.03,0.38,4.18-0.63,6.06
			c-1.01,1.88-2.69,3.25-4.72,3.85l-97.97,29.26C280.02,132.88,279.06,132.99,278.11,132.92z M377.06,89.76
			c-0.71-0.05-1.43,0.03-2.13,0.24l-97.97,29.26c-3.15,0.94-4.95,4.28-4.01,7.43c0.94,3.15,4.28,4.95,7.43,4.01l97.97-29.26
			c1.52-0.45,2.77-1.48,3.53-2.89c0.76-1.41,0.93-3.02,0.47-4.54v0c-0.46-1.52-1.48-2.77-2.89-3.53
			C378.71,90.06,377.89,89.82,377.06,89.76z"/>
	</g>
	<g>
		
			<linearGradient id="SVGID_1_" gradientUnits="userSpaceOnUse" x1="390.51" y1="376.9228" x2="185.6256" y2="182.1343" gradientTransform="matrix(0.9996 0.0296 -0.0296 0.9996 5.8888 -5.7797)">
			<stop  offset="0.0514" style="stop-color:#FF3481"/>
			<stop  offset="0.5757" style="stop-color:#6D2D90"/>
			<stop  offset="1" style="stop-color:#662D91"/>
		</linearGradient>
		<path class="st1" d="M252.84,388.69c2.64,0.3,2.99,3.99,0.45,4.79l-14.54,4.54c-4.84,1.45-8.16,6.12-7.54,11.13
			c0.79,6.47,7.18,10.43,13.15,8.64l151.92-45.41c5.41-1.62,8.52-7.38,6.9-12.79l0,0c-1.62-5.41-7.38-8.52-12.79-6.9l-42.24,12.6
			c-2.61,0.78-4.43-2.55-2.37-4.33l0.11-0.09c0.27-0.23,0.58-0.4,0.92-0.51l115.35-34.46c5.41-1.62,8.52-7.38,6.9-12.79
			c-1.62-5.41-7.38-8.52-12.79-6.9l-86.16,25.73c8.58-14.4,14.18-30.81,15.96-48.4l61.59-18.37c4.65-1.39,7.31-6.33,5.92-10.98
			c-1.39-4.65-6.33-7.31-10.98-5.92l-56.11,16.73c-2.06-37.65-21.83-70.82-51.32-91l50.03-14.91c4.65-1.39,7.31-6.33,5.92-10.98
			c-1.39-4.65-6.33-7.31-10.98-5.92l-66.95,19.98c-13.09-5.34-27.36-8.42-42.36-8.72c-64.87-1.28-119.03,50.75-120.43,115.61
			c-0.75,34.83,13.69,66.51,37.27,88.66l-32.54,10.06c-4.98,1.49-7.84,6.79-6.35,11.77l0,0c1.49,4.98,6.79,7.84,11.77,6.35
			l45.6-13.96c3.43,2.13,6.97,4.1,10.62,5.88l-42.12,12.93c-5.41,1.62-8.52,7.38-6.9,12.79c1.62,5.41,7.38,8.52,12.79,6.9
			l71.33-21.66C252.17,388.68,252.5,388.65,252.84,388.69L252.84,388.69z"/>
		
			<linearGradient id="SVGID_2_" gradientUnits="userSpaceOnUse" x1="510.1841" y1="238.3102" x2="325.4682" y2="62.6964" gradientTransform="matrix(0.9996 0.0296 -0.0296 0.9996 5.8888 -5.7797)">
			<stop  offset="0.0514" style="stop-color:#FF3481"/>
			<stop  offset="0.5757" style="stop-color:#6D2D90"/>
			<stop  offset="1" style="stop-color:#662D91"/>
		</linearGradient>
		<path class="st2" d="M395.02,147.18c-0.15,5.11,3.73,8.09,8.63,6.62l8.78-2.63c4.15-1.24,7-5.25,6.47-9.55
			c-0.68-5.55-6.16-8.95-11.29-7.42l-3.41,1.02C399.3,136.7,395.17,142.08,395.02,147.18L395.02,147.18z"/>
		
			<linearGradient id="SVGID_3_" gradientUnits="userSpaceOnUse" x1="383.2638" y1="113.2116" x2="222.9949" y2="173.6408" gradientTransform="matrix(0.9974 0.0724 -0.0724 0.9974 17.2754 -16.8466)">
			<stop  offset="0.0514" style="stop-color:#FF3481"/>
			<stop  offset="0.5757" style="stop-color:#6D2D90"/>
			<stop  offset="1" style="stop-color:#662D91"/>
		</linearGradient>
		<path class="st3" d="M396.13,122.2L396.13,122.2c-1.68-5.62-7.66-8.84-13.28-7.16L232.9,159.83c-5.62,1.68-8.84,7.66-7.16,13.27
			c1.68,5.62,7.66,8.84,13.27,7.16l149.95-44.79C394.58,133.79,397.81,127.82,396.13,122.2z"/>
	</g>
	<g>
		<path class="st0" d="M423.26,194.32c3.73,5.61,2.2,13.18-3.41,16.9c5.61-3.73,13.18-2.2,16.9,3.41c-3.72-5.61-2.2-13.18,3.41-16.9
			C434.55,201.46,426.99,199.93,423.26,194.32z"/>
	</g>
	<g>
		<path class="st0" d="M104.03,248.54c3.14,5.5,1.22,12.51-4.28,15.65c5.5-3.14,12.51-1.22,15.65,4.28
			c-3.14-5.5-1.22-12.51,4.28-15.65C114.18,255.96,107.17,254.04,104.03,248.54z"/>
	</g>
	<g>
		<circle class="st0" cx="421.72" cy="360.95" r="11.47"/>
	</g>
	<g>
		<circle class="st0" cx="106.13" cy="360.49" r="11.47"/>
	</g>
	<g>
		<circle class="st0" cx="135.67" cy="363.21" r="5.78"/>
	</g>
	<g>
		<path class="st0" d="M121.97,228.92c0.96,3.04-0.73,6.29-3.78,7.25c3.04-0.96,6.29,0.73,7.25,3.78c-0.96-3.04,0.73-6.29,3.78-7.25
			C126.17,233.65,122.93,231.96,121.97,228.92z"/>
	</g>
	<g>
		<path class="st0" d="M406.53,201.05c1.67,2.51,0.98,5.9-1.53,7.57c2.51-1.67,5.9-0.98,7.57,1.53c-1.67-2.51-0.98-5.9,1.53-7.57
			C411.59,204.25,408.2,203.56,406.53,201.05z"/>
	</g>
	<path class="st4" d="M255.38,152.52c-1.27-3.4-5.06-5.13-8.46-3.86l-9.83,3.67l-27.83,10.41l-9.83,3.67
		c-3.4,1.27-5.13,5.06-3.86,8.46l0,0c1.27,3.4,5.06,5.13,8.46,3.86l3.67-1.37c3.4-1.27,7.19,0.45,8.46,3.86l12.9,34.5l27.83-10.41
		l-12.9-34.5c-1.27-3.4,0.46-7.19,3.86-8.46l3.67-1.37C254.93,159.71,256.65,155.92,255.38,152.52L255.38,152.52z"/>
	<path class="st4" d="M368.88,274.56c-1.64,55.43-47.91,99.04-103.34,97.4c-55.43-1.64-99.04-47.91-97.4-103.34
		c1.64-55.43,47.91-99.04,103.34-97.4C326.91,172.85,370.52,219.12,368.88,274.56z"/>
	<path class="st4" d="M355.72,274.17c-1.43,48.17-41.63,86.06-89.8,84.64c-48.17-1.43-86.06-41.63-84.64-89.8
		c1.42-48.17,41.63-86.06,89.8-84.64C319.25,185.79,357.15,226,355.72,274.17z"/>
	
		<linearGradient id="SVGID_4_" gradientUnits="userSpaceOnUse" x1="406.7556" y1="167.2012" x2="302.051" y2="206.6799" gradientTransform="matrix(0.9974 0.0724 -0.0724 0.9974 17.2754 -16.8466)">
		<stop  offset="0.0514" style="stop-color:#FF3481"/>
		<stop  offset="0.5757" style="stop-color:#6D2D90"/>
		<stop  offset="1" style="stop-color:#662D91"/>
	</linearGradient>
	<path class="st5" d="M413.99,178.31L413.99,178.31c-1.1-3.67-5-5.78-8.67-4.68l-97.96,29.26c-3.67,1.1-5.78,5-4.68,8.67
		c1.1,3.67,5,5.78,8.67,4.68l97.97-29.26C412.98,185.89,415.09,181.98,413.99,178.31z"/>
	
		<linearGradient id="SVGID_5_" gradientUnits="userSpaceOnUse" x1="437.2737" y1="287.0579" x2="330.8527" y2="325.9646" gradientTransform="matrix(0.9974 0.0724 -0.0724 0.9974 17.2754 -16.8466)">
		<stop  offset="0.0514" style="stop-color:#FF3481"/>
		<stop  offset="0.5757" style="stop-color:#6D2D90"/>
		<stop  offset="1" style="stop-color:#662D91"/>
	</linearGradient>
	<path class="st6" d="M434.46,299.86L434.46,299.86c-1.1-3.67-5-5.78-8.67-4.68l-97.97,29.26c-3.67,1.1-5.78,5-4.68,8.67
		c1.1,3.67,5,5.78,8.67,4.68l97.96-29.26C433.46,307.43,435.56,303.53,434.46,299.86z"/>
	<g>
		
			<linearGradient id="SVGID_6_" gradientUnits="userSpaceOnUse" x1="203.3457" y1="266.3554" x2="157.5737" y2="284.6642" gradientTransform="matrix(0.9974 0.0724 -0.0724 0.9974 17.2754 -16.8466)">
			<stop  offset="0.0514" style="stop-color:#FF3481"/>
			<stop  offset="0.5757" style="stop-color:#6D2D90"/>
			<stop  offset="1" style="stop-color:#662D91"/>
		</linearGradient>
		<path class="st7" d="M198.36,271.94l-37.45,11.21c-3.65,1.09-7.53-1-8.62-4.65l0,0c-1.09-3.65,1-7.53,4.65-8.62l37.45-11.21
			c3.65-1.09,7.53,1,8.62,4.65l0,0C204.1,266.96,202.01,270.84,198.36,271.94z"/>
		
			<linearGradient id="SVGID_7_" gradientUnits="userSpaceOnUse" x1="148.9853" y1="287.1823" x2="126.6714" y2="296.3367" gradientTransform="matrix(0.9974 0.0724 -0.0724 0.9974 17.2754 -16.8466)">
			<stop  offset="0.0514" style="stop-color:#FF3481"/>
			<stop  offset="0.5757" style="stop-color:#6D2D90"/>
			<stop  offset="1" style="stop-color:#662D91"/>
		</linearGradient>
		<path class="st8" d="M142.16,288.75l-9.5,2.84c-3.65,1.09-7.53-1-8.62-4.65l0,0c-1.09-3.65,1-7.53,4.65-8.62l9.5-2.84
			c3.65-1.09,7.53,1,8.62,4.65l0,0C147.9,283.78,145.81,287.66,142.16,288.75z"/>
	</g>
	<g>
		<path class="st0" d="M132.06,346.45c-3.21-0.23-6.09-2.41-7.07-5.66c-0.61-2.03-0.39-4.19,0.63-6.06
			c1.01-1.88,2.69-3.25,4.72-3.86l21.1-6.49c4.22-1.26,8.67,1.14,9.92,5.35c0.61,2.03,0.39,4.18-0.63,6.06
			c-1.01,1.88-2.69,3.25-4.72,3.86l-21.1,6.49C133.96,346.42,133,346.51,132.06,346.45z M154.16,326.05
			c-0.7-0.05-1.42,0.02-2.14,0.24l-21.1,6.49c-1.53,0.46-2.78,1.48-3.54,2.89c-0.76,1.41-0.93,3.02-0.47,4.54
			c0.46,1.52,1.48,2.77,2.89,3.54c1.41,0.76,3.02,0.93,4.54,0.47l21.1-6.49c1.53-0.46,2.78-1.48,3.54-2.89
			c0.76-1.41,0.93-3.02,0.47-4.54C158.72,327.85,156.56,326.23,154.16,326.05z"/>
	</g>
	<g>
		<path class="st0" d="M394.93,250.75c-1.11-0.08-2.2-0.4-3.22-0.94c-1.88-1.01-3.25-2.69-3.86-4.72c-1.26-4.21,1.14-8.66,5.35-9.92
			l49.49-14.6c2.03-0.61,4.18-0.38,6.06,0.63c1.88,1.01,3.25,2.69,3.85,4.72c0.61,2.03,0.38,4.18-0.63,6.06s-2.69,3.25-4.72,3.85
			l-49.49,14.6C396.84,250.71,395.88,250.82,394.93,250.75z M445.4,222.25c-0.71-0.05-1.43,0.03-2.13,0.24l-49.49,14.6
			c-3.15,0.94-4.95,4.27-4,7.43c0.46,1.52,1.48,2.78,2.89,3.53c1.41,0.76,3.02,0.93,4.54,0.47l49.49-14.6
			c1.51-0.45,2.77-1.48,3.53-2.89c0.76-1.41,0.93-3.02,0.47-4.54v0c-0.46-1.52-1.48-2.77-2.89-3.53
			C447.05,222.55,446.23,222.31,445.4,222.25z"/>
	</g>
	<path class="st0" d="M141.37,212.14c-3.21-0.23-3.58,4.75-0.36,4.99C144.21,217.36,144.58,212.37,141.37,212.14z"/>
	<path class="st0" d="M110.95,311.32c-3.21-0.23-3.58,4.75-0.36,4.99C113.79,316.54,114.16,311.56,110.95,311.32z"/>
	<path class="st0" d="M460.97,237.46l-0.5-0.04c-1.3-0.09-2.64,0.96-2.67,2.31c-0.04,1.36,0.91,2.57,2.31,2.67l0.5,0.04
		c1.3,0.09,2.64-0.96,2.67-2.31C463.32,238.78,462.37,237.57,460.97,237.46z"/>
	<path class="st0" d="M429.51,170l-0.5-0.04c-1.3-0.09-2.64,0.96-2.67,2.31c-0.04,1.36,0.91,2.57,2.31,2.67l0.5,0.04
		c1.3,0.09,2.64-0.96,2.67-2.31C431.86,171.32,430.91,170.11,429.51,170z"/>
	<path class="st0" d="M447.19,347.75c-3.21-0.23-3.58,4.75-0.36,4.99C450.04,352.97,450.41,347.98,447.19,347.75z"/>
	<path class="st0" d="M153.71,399.15l-0.5-0.04c-1.3-0.09-2.64,0.96-2.67,2.31c-0.04,1.36,0.91,2.57,2.31,2.67l0.5,0.04
		c1.3,0.09,2.64-0.96,2.67-2.31C156.06,400.47,155.1,399.25,153.71,399.15z"/>
</g>
</svg>
