<?xml version="1.0" encoding="utf-8"?>
<!-- Generator: Adobe Illustrator 23.0.0, SVG Export Plug-In . SVG Version: 6.00 Build 0)  -->
<svg version="1.1" id="Objects" xmlns="http://www.w3.org/2000/svg" xmlns:xlink="http://www.w3.org/1999/xlink" x="0px" y="0px"
	 viewBox="0 0 378.47 330.47" style="enable-background:new 0 0 378.47 330.47;" xml:space="preserve">
<style type="text/css">
	.st0{fill:#FFFEBD;}
	.st1{fill:url(#SVGID_1_);}
	.st2{fill:url(#SVGID_2_);}
	.st3{fill:url(#SVGID_3_);}
	.st4{fill:#FFFFFF;}
	.st5{fill:url(#SVGID_4_);}
	.st6{fill:url(#SVGID_5_);}
	.st7{fill:url(#SVGID_6_);}
	.st8{fill:url(#SVGID_7_);}
</style>
<g>
	<g>
		<path class="st0" d="M167.33,324.03c-74.72-5.42-131.1-70.62-125.68-145.34C47.08,103.97,112.27,47.59,187,53.01
			c74.72,5.42,131.1,70.62,125.68,145.34C307.25,273.07,242.05,329.45,167.33,324.03z M186.85,55
			c-73.62-5.34-137.86,50.21-143.2,123.83c-5.34,73.62,50.21,137.86,123.83,143.2c73.62,5.34,137.86-50.21,143.2-123.83
			C316.02,124.58,260.47,60.34,186.85,55z"/>
	</g>
	<g>
		<path class="st0" d="M187.11,45.18c-1.11-0.08-2.2-0.4-3.21-0.94c-1.88-1.01-3.25-2.69-3.85-4.72c-1.26-4.21,1.14-8.66,5.35-9.92
			l97.97-29.26c2.03-0.61,4.19-0.38,6.06,0.63c1.88,1.01,3.25,2.69,3.85,4.72c0.61,2.03,0.38,4.18-0.63,6.06
			c-1.01,1.88-2.69,3.25-4.72,3.85l-97.97,29.26C189.02,45.14,188.06,45.24,187.11,45.18z M286.06,2.02
			c-0.71-0.05-1.43,0.03-2.13,0.24l-97.97,29.26c-3.15,0.94-4.95,4.28-4.01,7.43c0.94,3.15,4.28,4.95,7.43,4.01l97.97-29.26
			c1.52-0.45,2.77-1.48,3.53-2.89c0.76-1.41,0.93-3.02,0.47-4.54v0c-0.46-1.52-1.48-2.77-2.89-3.53
			C287.71,2.31,286.89,2.08,286.06,2.02z"/>
	</g>
	<g>
		
			<linearGradient id="SVGID_1_" gradientUnits="userSpaceOnUse" x1="299.51" y1="289.1793" x2="94.6256" y2="94.3908" gradientTransform="matrix(0.9996 0.0296 -0.0296 0.9996 3.2552 -3.1212)">
			<stop  offset="0.0514" style="stop-color:#FF3481"/>
			<stop  offset="0.5757" style="stop-color:#6D2D90"/>
			<stop  offset="1" style="stop-color:#662D91"/>
		</linearGradient>
		<path class="st1" d="M161.84,300.95c2.64,0.3,2.99,3.99,0.45,4.79l-14.54,4.54c-4.84,1.45-8.16,6.12-7.54,11.13
			c0.79,6.47,7.18,10.43,13.15,8.64l151.92-45.41c5.41-1.62,8.52-7.38,6.9-12.79l0,0c-1.62-5.41-7.38-8.52-12.79-6.9l-42.24,12.6
			c-2.61,0.78-4.43-2.55-2.37-4.33l0.11-0.09c0.27-0.23,0.58-0.4,0.92-0.51l115.35-34.46c5.41-1.62,8.52-7.38,6.9-12.79
			c-1.62-5.41-7.38-8.52-12.79-6.9l-86.16,25.73c8.58-14.4,14.18-30.81,15.96-48.4l61.59-18.37c4.65-1.39,7.31-6.33,5.92-10.98
			c-1.39-4.65-6.33-7.31-10.98-5.92l-56.11,16.73c-2.06-37.65-21.83-70.82-51.32-91l50.03-14.91c4.65-1.39,7.31-6.33,5.92-10.98
			c-1.39-4.65-6.33-7.31-10.98-5.92l-66.95,19.98c-13.09-5.34-27.36-8.42-42.36-8.72c-64.87-1.28-119.03,50.75-120.43,115.61
			c-0.75,34.83,13.69,66.51,37.27,88.66L64.1,280.05c-4.98,1.49-7.84,6.79-6.35,11.77l0,0c1.49,4.98,6.79,7.84,11.77,6.35
			l45.6-13.96c3.43,2.13,6.97,4.1,10.62,5.88l-42.12,12.93c-5.41,1.62-8.52,7.38-6.9,12.79c1.62,5.41,7.38,8.52,12.79,6.9
			l71.33-21.66C161.17,300.94,161.5,300.91,161.84,300.95L161.84,300.95z"/>
		
			<linearGradient id="SVGID_2_" gradientUnits="userSpaceOnUse" x1="419.1841" y1="150.5667" x2="234.4682" y2="-25.0471" gradientTransform="matrix(0.9996 0.0296 -0.0296 0.9996 3.2552 -3.1212)">
			<stop  offset="0.0514" style="stop-color:#FF3481"/>
			<stop  offset="0.5757" style="stop-color:#6D2D90"/>
			<stop  offset="1" style="stop-color:#662D91"/>
		</linearGradient>
		<path class="st2" d="M304.02,59.44c-0.15,5.11,3.73,8.09,8.63,6.62l8.78-2.63c4.15-1.24,7-5.25,6.47-9.55
			c-0.68-5.55-6.16-8.95-11.29-7.42l-3.41,1.02C308.3,48.95,304.17,54.33,304.02,59.44L304.02,59.44z"/>
		
			<linearGradient id="SVGID_3_" gradientUnits="userSpaceOnUse" x1="292.2638" y1="25.468" x2="131.9949" y2="85.8973" gradientTransform="matrix(0.9974 0.0724 -0.0724 0.9974 10.6862 -10.4863)">
			<stop  offset="0.0514" style="stop-color:#FF3481"/>
			<stop  offset="0.5757" style="stop-color:#6D2D90"/>
			<stop  offset="1" style="stop-color:#662D91"/>
		</linearGradient>
		<path class="st3" d="M305.13,34.46L305.13,34.46c-1.68-5.62-7.66-8.84-13.28-7.16L141.9,72.08c-5.62,1.68-8.84,7.66-7.16,13.27
			c1.68,5.62,7.66,8.84,13.27,7.16l149.95-44.79C303.58,46.05,306.81,40.08,305.13,34.46z"/>
	</g>
	<g>
		<path class="st0" d="M332.26,106.58c3.73,5.61,2.2,13.18-3.41,16.9c5.61-3.73,13.18-2.2,16.9,3.41c-3.72-5.61-2.2-13.18,3.41-16.9
			C343.55,113.71,335.99,112.19,332.26,106.58z"/>
	</g>
	<g>
		<path class="st0" d="M13.03,160.79c3.14,5.5,1.22,12.51-4.28,15.65c5.5-3.14,12.51-1.22,15.65,4.28
			c-3.14-5.5-1.22-12.51,4.28-15.65C23.18,168.22,16.17,166.3,13.03,160.79z"/>
	</g>
	<g>
		<circle class="st0" cx="330.72" cy="273.21" r="11.47"/>
	</g>
	<g>
		<circle class="st0" cx="15.13" cy="272.74" r="11.47"/>
	</g>
	<g>
		<circle class="st0" cx="44.67" cy="275.47" r="5.78"/>
	</g>
	<g>
		<path class="st0" d="M30.97,141.17c0.96,3.04-0.73,6.29-3.78,7.25c3.04-0.96,6.29,0.73,7.25,3.78c-0.96-3.04,0.73-6.29,3.78-7.25
			C35.17,145.91,31.93,144.22,30.97,141.17z"/>
	</g>
	<g>
		<path class="st0" d="M315.53,113.31c1.67,2.51,0.98,5.9-1.53,7.57c2.51-1.67,5.9-0.98,7.57,1.53c-1.67-2.51-0.98-5.9,1.53-7.57
			C320.59,116.5,317.2,115.82,315.53,113.31z"/>
	</g>
	<path class="st4" d="M164.38,64.77c-1.27-3.4-5.06-5.13-8.46-3.86l-9.83,3.67L118.26,75l-9.83,3.67c-3.4,1.27-5.13,5.06-3.86,8.46
		l0,0c1.27,3.4,5.06,5.13,8.46,3.86l3.67-1.37c3.4-1.27,7.19,0.45,8.46,3.86l12.9,34.5l27.83-10.41L153,83.07
		c-1.27-3.4,0.46-7.19,3.86-8.46l3.67-1.37C163.93,71.96,165.65,68.17,164.38,64.77L164.38,64.77z"/>
	<path class="st4" d="M277.88,186.81c-1.64,55.43-47.91,99.04-103.34,97.4c-55.43-1.64-99.04-47.91-97.4-103.34
		c1.64-55.43,47.91-99.04,103.34-97.4C235.91,85.11,279.52,131.38,277.88,186.81z"/>
	<path class="st4" d="M264.72,186.42c-1.43,48.17-41.63,86.06-89.8,84.64c-48.17-1.43-86.06-41.63-84.64-89.8
		c1.42-48.17,41.63-86.06,89.8-84.64C228.25,98.05,266.15,138.25,264.72,186.42z"/>
	
		<linearGradient id="SVGID_4_" gradientUnits="userSpaceOnUse" x1="315.7556" y1="79.4576" x2="211.051" y2="118.9364" gradientTransform="matrix(0.9974 0.0724 -0.0724 0.9974 10.6862 -10.4863)">
		<stop  offset="0.0514" style="stop-color:#FF3481"/>
		<stop  offset="0.5757" style="stop-color:#6D2D90"/>
		<stop  offset="1" style="stop-color:#662D91"/>
	</linearGradient>
	<path class="st5" d="M322.99,90.57L322.99,90.57c-1.1-3.67-5-5.78-8.67-4.68l-97.96,29.26c-3.67,1.1-5.78,5-4.68,8.67
		c1.1,3.67,5,5.78,8.67,4.68l97.97-29.26C321.98,98.14,324.09,94.24,322.99,90.57z"/>
	
		<linearGradient id="SVGID_5_" gradientUnits="userSpaceOnUse" x1="346.2737" y1="199.3143" x2="239.8526" y2="238.221" gradientTransform="matrix(0.9974 0.0724 -0.0724 0.9974 10.6862 -10.4863)">
		<stop  offset="0.0514" style="stop-color:#FF3481"/>
		<stop  offset="0.5757" style="stop-color:#6D2D90"/>
		<stop  offset="1" style="stop-color:#662D91"/>
	</linearGradient>
	<path class="st6" d="M343.46,212.12L343.46,212.12c-1.1-3.67-5-5.78-8.67-4.68l-97.97,29.26c-3.67,1.1-5.78,5-4.68,8.67
		c1.1,3.67,5,5.78,8.67,4.68l97.96-29.26C342.46,219.69,344.56,215.79,343.46,212.12z"/>
	<g>
		
			<linearGradient id="SVGID_6_" gradientUnits="userSpaceOnUse" x1="112.3457" y1="178.6119" x2="66.5737" y2="196.9207" gradientTransform="matrix(0.9974 0.0724 -0.0724 0.9974 10.6862 -10.4863)">
			<stop  offset="0.0514" style="stop-color:#FF3481"/>
			<stop  offset="0.5757" style="stop-color:#6D2D90"/>
			<stop  offset="1" style="stop-color:#662D91"/>
		</linearGradient>
		<path class="st7" d="M107.36,184.19L69.91,195.4c-3.65,1.09-7.53-1-8.62-4.65l0,0c-1.09-3.65,1-7.53,4.65-8.62l37.45-11.21
			c3.65-1.09,7.53,1,8.62,4.65l0,0C113.1,179.22,111.01,183.1,107.36,184.19z"/>
		
			<linearGradient id="SVGID_7_" gradientUnits="userSpaceOnUse" x1="57.9853" y1="199.4388" x2="35.6714" y2="208.5932" gradientTransform="matrix(0.9974 0.0724 -0.0724 0.9974 10.6862 -10.4863)">
			<stop  offset="0.0514" style="stop-color:#FF3481"/>
			<stop  offset="0.5757" style="stop-color:#6D2D90"/>
			<stop  offset="1" style="stop-color:#662D91"/>
		</linearGradient>
		<path class="st8" d="M51.16,201.01l-9.5,2.84c-3.65,1.09-7.53-1-8.62-4.65l0,0c-1.09-3.65,1-7.53,4.65-8.62l9.5-2.84
			c3.65-1.09,7.53,1,8.62,4.65l0,0C56.9,196.04,54.81,199.92,51.16,201.01z"/>
	</g>
	<g>
		<path class="st0" d="M41.06,258.7c-3.21-0.23-6.09-2.41-7.07-5.66c-0.61-2.03-0.39-4.19,0.63-6.06c1.01-1.88,2.69-3.25,4.72-3.86
			l21.1-6.49c4.22-1.26,8.67,1.14,9.92,5.35c0.61,2.03,0.39,4.18-0.63,6.06c-1.01,1.88-2.69,3.25-4.72,3.86l-21.1,6.49
			C42.96,258.67,42,258.77,41.06,258.7z M63.16,238.31c-0.7-0.05-1.42,0.02-2.14,0.24l-21.1,6.49c-1.53,0.46-2.78,1.48-3.54,2.89
			c-0.76,1.41-0.93,3.02-0.47,4.54c0.45,1.52,1.48,2.77,2.89,3.54c1.41,0.76,3.02,0.93,4.54,0.47l21.1-6.49
			c1.53-0.46,2.78-1.48,3.54-2.89c0.76-1.41,0.93-3.02,0.47-4.54C67.72,240.11,65.56,238.48,63.16,238.31z"/>
	</g>
	<g>
		<path class="st0" d="M303.93,163c-1.11-0.08-2.2-0.4-3.22-0.94c-1.88-1.01-3.25-2.69-3.86-4.72c-1.26-4.21,1.14-8.66,5.35-9.92
			l49.49-14.6c2.03-0.61,4.18-0.38,6.06,0.63c1.88,1.01,3.25,2.69,3.85,4.72c0.61,2.03,0.38,4.18-0.63,6.06s-2.69,3.25-4.72,3.85
			l-49.49,14.6C305.84,162.97,304.88,163.07,303.93,163z M354.4,134.5c-0.71-0.05-1.43,0.03-2.13,0.24l-49.49,14.6
			c-3.15,0.94-4.95,4.27-4,7.43c0.46,1.52,1.48,2.78,2.89,3.53c1.41,0.76,3.02,0.93,4.54,0.47l49.49-14.6
			c1.51-0.45,2.77-1.48,3.53-2.89c0.76-1.41,0.93-3.02,0.47-4.54v0c-0.46-1.52-1.48-2.77-2.89-3.53
			C356.05,134.8,355.23,134.57,354.4,134.5z"/>
	</g>
	<path class="st0" d="M50.37,124.4c-3.21-0.23-3.58,4.75-0.36,4.99C53.21,129.62,53.58,124.63,50.37,124.4z"/>
	<path class="st0" d="M19.95,223.58c-3.21-0.23-3.58,4.75-0.36,4.99C22.79,228.8,23.16,223.81,19.95,223.58z"/>
	<path class="st0" d="M369.97,149.72l-0.5-0.04c-1.3-0.09-2.64,0.96-2.67,2.31c-0.04,1.36,0.91,2.57,2.31,2.67l0.5,0.04
		c1.3,0.09,2.64-0.96,2.67-2.31C372.32,151.04,371.37,149.82,369.97,149.72z"/>
	<path class="st0" d="M338.51,82.26l-0.5-0.04c-1.3-0.09-2.64,0.96-2.67,2.31c-0.04,1.36,0.91,2.57,2.31,2.67l0.5,0.04
		c1.3,0.09,2.64-0.96,2.67-2.31C340.86,83.58,339.91,82.36,338.51,82.26z"/>
	<path class="st0" d="M356.19,260.01c-3.21-0.23-3.58,4.75-0.36,4.99C359.04,265.23,359.41,260.24,356.19,260.01z"/>
	<path class="st0" d="M62.71,311.4l-0.5-0.04c-1.3-0.09-2.64,0.96-2.67,2.31c-0.04,1.36,0.91,2.57,2.31,2.67l0.5,0.04
		c1.3,0.09,2.64-0.96,2.67-2.31C65.06,312.72,64.1,311.51,62.71,311.4z"/>
</g>
</svg>
