<?xml version="1.0" encoding="utf-8"?>
<!-- Generator: Adobe Illustrator 23.0.0, SVG Export Plug-In . SVG Version: 6.00 Build 0)  -->
<svg version="1.1" id="Objects" xmlns="http://www.w3.org/2000/svg" xmlns:xlink="http://www.w3.org/1999/xlink" x="0px" y="0px"
	 viewBox="0 0 374.29 330.47" style="enable-background:new 0 0 374.29 330.47;" xml:space="preserve">
<style type="text/css">
	.st0{fill:#FFFEBD;}
	.st1{fill:url(#SVGID_1_);}
	.st2{fill:url(#SVGID_2_);}
	.st3{fill:url(#SVGID_3_);}
	.st4{fill:#FFFFFF;}
	.st5{fill:url(#SVGID_4_);}
	.st6{fill:url(#SVGID_5_);}
	.st7{fill:url(#SVGID_6_);}
	.st8{fill:url(#SVGID_7_);}
</style>
<g>
	<g>
		<path class="st0" d="M163.15,324.03c-74.72-5.42-131.1-70.62-125.68-145.34c5.42-74.72,70.62-131.1,145.34-125.68
			c74.72,5.42,131.1,70.62,125.68,145.34C303.07,273.07,237.87,329.45,163.15,324.03z M182.66,55
			c-73.62-5.34-137.86,50.21-143.2,123.83c-5.34,73.62,50.21,137.86,123.83,143.2c73.62,5.34,137.86-50.21,143.2-123.83
			C311.83,124.58,256.28,60.34,182.66,55z"/>
	</g>
	<g>
		<path class="st0" d="M182.92,45.18c-1.11-0.08-2.2-0.4-3.21-0.94c-1.88-1.01-3.25-2.69-3.85-4.72c-1.26-4.21,1.14-8.66,5.35-9.92
			l97.97-29.26c2.03-0.61,4.19-0.38,6.06,0.63c1.88,1.01,3.25,2.69,3.85,4.72c0.61,2.03,0.38,4.18-0.63,6.06
			c-1.01,1.88-2.69,3.25-4.72,3.85l-97.97,29.26C184.83,45.14,183.87,45.24,182.92,45.18z M281.87,2.02
			c-0.71-0.05-1.43,0.03-2.13,0.24l-97.97,29.26c-3.15,0.94-4.95,4.28-4.01,7.43c0.94,3.15,4.28,4.95,7.43,4.01l97.97-29.26
			c1.52-0.45,2.77-1.48,3.53-2.89c0.76-1.41,0.93-3.02,0.47-4.54v0c-0.46-1.52-1.48-2.77-2.89-3.53
			C283.52,2.31,282.7,2.08,281.87,2.02z"/>
	</g>
	<g>
		
			<linearGradient id="SVGID_1_" gradientUnits="userSpaceOnUse" x1="295.3235" y1="289.1793" x2="90.4391" y2="94.3908" gradientTransform="matrix(0.9996 0.0296 -0.0296 0.9996 3.2535 -2.9973)">
			<stop  offset="0.0514" style="stop-color:#FF3481"/>
			<stop  offset="0.5757" style="stop-color:#6D2D90"/>
			<stop  offset="1" style="stop-color:#662D91"/>
		</linearGradient>
		<path class="st1" d="M157.65,300.95c2.64,0.3,2.99,3.99,0.45,4.79l-14.54,4.54c-4.84,1.45-8.16,6.12-7.54,11.13
			c0.79,6.47,7.18,10.43,13.15,8.64l151.92-45.41c5.41-1.62,8.52-7.38,6.9-12.79l0,0c-1.62-5.41-7.38-8.52-12.79-6.9l-42.24,12.6
			c-2.61,0.78-4.43-2.55-2.37-4.33l0.11-0.09c0.27-0.23,0.58-0.4,0.92-0.51l115.35-34.46c5.41-1.62,8.52-7.38,6.9-12.79
			c-1.62-5.41-7.38-8.52-12.79-6.9l-86.16,25.73c8.58-14.4,14.18-30.81,15.96-48.4l61.59-18.37c4.65-1.39,7.31-6.33,5.92-10.98
			c-1.39-4.65-6.33-7.31-10.98-5.92l-56.11,16.73c-2.06-37.65-21.83-70.82-51.32-91l50.03-14.91c4.65-1.39,7.31-6.33,5.92-10.98
			c-1.39-4.65-6.33-7.31-10.98-5.92l-66.95,19.98c-13.09-5.34-27.36-8.42-42.36-8.72c-64.87-1.28-119.03,50.75-120.43,115.61
			c-0.75,34.83,13.69,66.51,37.27,88.66l-32.54,10.06c-4.98,1.49-7.84,6.79-6.35,11.77l0,0c1.49,4.98,6.79,7.84,11.77,6.35
			l45.6-13.96c3.43,2.13,6.97,4.1,10.62,5.88l-42.12,12.93c-5.41,1.62-8.52,7.38-6.9,12.79c1.62,5.41,7.38,8.52,12.79,6.9
			l71.33-21.66C156.98,300.94,157.32,300.91,157.65,300.95L157.65,300.95z"/>
		
			<linearGradient id="SVGID_2_" gradientUnits="userSpaceOnUse" x1="414.9975" y1="150.5667" x2="230.2817" y2="-25.0471" gradientTransform="matrix(0.9996 0.0296 -0.0296 0.9996 3.2535 -2.9973)">
			<stop  offset="0.0514" style="stop-color:#FF3481"/>
			<stop  offset="0.5757" style="stop-color:#6D2D90"/>
			<stop  offset="1" style="stop-color:#662D91"/>
		</linearGradient>
		<path class="st2" d="M299.83,59.44c-0.15,5.11,3.73,8.09,8.63,6.62l8.78-2.63c4.15-1.24,7-5.25,6.47-9.55
			c-0.68-5.55-6.16-8.95-11.29-7.42L309,47.49C304.11,48.95,299.98,54.33,299.83,59.44L299.83,59.44z"/>
		
			<linearGradient id="SVGID_3_" gradientUnits="userSpaceOnUse" x1="288.0773" y1="25.468" x2="127.8084" y2="85.8973" gradientTransform="matrix(0.9974 0.0724 -0.0724 0.9974 10.6753 -10.1832)">
			<stop  offset="0.0514" style="stop-color:#FF3481"/>
			<stop  offset="0.5757" style="stop-color:#6D2D90"/>
			<stop  offset="1" style="stop-color:#662D91"/>
		</linearGradient>
		<path class="st3" d="M300.94,34.46L300.94,34.46c-1.68-5.62-7.66-8.84-13.28-7.16L137.71,72.08c-5.62,1.68-8.84,7.66-7.16,13.27
			c1.68,5.62,7.66,8.84,13.27,7.16l149.95-44.79C299.4,46.05,302.62,40.08,300.94,34.46z"/>
	</g>
	<g>
		<path class="st0" d="M328.07,106.58c3.73,5.61,2.2,13.18-3.41,16.9c5.61-3.73,13.18-2.2,16.9,3.41c-3.72-5.61-2.2-13.18,3.41-16.9
			C339.37,113.71,331.8,112.19,328.07,106.58z"/>
	</g>
	<g>
		<path class="st0" d="M8.85,160.79c3.14,5.5,1.22,12.51-4.28,15.65c5.5-3.14,12.51-1.22,15.65,4.28
			c-3.14-5.5-1.22-12.51,4.28-15.65C18.99,168.22,11.99,166.3,8.85,160.79z"/>
	</g>
	<g>
		<circle class="st0" cx="326.53" cy="273.21" r="11.47"/>
	</g>
	<g>
		<circle class="st0" cx="10.94" cy="272.74" r="11.47"/>
	</g>
	<g>
		<circle class="st0" cx="40.49" cy="275.47" r="5.78"/>
	</g>
	<g>
		<path class="st0" d="M26.78,141.17c0.96,3.04-0.73,6.29-3.78,7.25c3.04-0.96,6.29,0.73,7.25,3.78c-0.96-3.04,0.73-6.29,3.78-7.25
			C30.99,145.91,27.74,144.22,26.78,141.17z"/>
	</g>
	<g>
		<path class="st0" d="M311.34,113.31c1.67,2.51,0.98,5.9-1.53,7.57c2.51-1.67,5.9-0.98,7.57,1.53c-1.67-2.51-0.98-5.9,1.53-7.57
			C316.4,116.5,313.01,115.82,311.34,113.31z"/>
	</g>
	<path class="st4" d="M160.19,64.77c-1.27-3.4-5.06-5.13-8.46-3.86l-9.83,3.67L114.07,75l-9.83,3.67c-3.4,1.27-5.13,5.06-3.86,8.46
		l0,0c1.27,3.4,5.06,5.13,8.46,3.86l3.67-1.37c3.4-1.27,7.19,0.45,8.46,3.86l12.9,34.5l27.83-10.41l-12.9-34.5
		c-1.27-3.4,0.45-7.19,3.86-8.46l3.67-1.37C159.74,71.96,161.47,68.17,160.19,64.77L160.19,64.77z"/>
	<path class="st4" d="M273.69,186.81c-1.64,55.43-47.91,99.04-103.34,97.4c-55.43-1.64-99.04-47.91-97.4-103.34
		c1.64-55.43,47.91-99.04,103.34-97.4C231.72,85.11,275.33,131.38,273.69,186.81z"/>
	<path class="st4" d="M260.53,186.42c-1.43,48.17-41.63,86.06-89.8,84.64c-48.17-1.43-86.06-41.63-84.64-89.8
		c1.42-48.17,41.63-86.06,89.8-84.64C224.07,98.05,261.96,138.25,260.53,186.42z"/>
	
		<linearGradient id="SVGID_4_" gradientUnits="userSpaceOnUse" x1="311.5691" y1="79.4576" x2="206.8645" y2="118.9364" gradientTransform="matrix(0.9974 0.0724 -0.0724 0.9974 10.6753 -10.1832)">
		<stop  offset="0.0514" style="stop-color:#FF3481"/>
		<stop  offset="0.5757" style="stop-color:#6D2D90"/>
		<stop  offset="1" style="stop-color:#662D91"/>
	</linearGradient>
	<path class="st5" d="M318.8,90.57L318.8,90.57c-1.1-3.67-5-5.78-8.67-4.68l-97.96,29.26c-3.67,1.1-5.78,5-4.68,8.67
		c1.1,3.67,5,5.78,8.67,4.68l97.97-29.26C317.8,98.14,319.9,94.24,318.8,90.57z"/>
	
		<linearGradient id="SVGID_5_" gradientUnits="userSpaceOnUse" x1="342.0872" y1="199.3143" x2="235.6662" y2="238.221" gradientTransform="matrix(0.9974 0.0724 -0.0724 0.9974 10.6753 -10.1832)">
		<stop  offset="0.0514" style="stop-color:#FF3481"/>
		<stop  offset="0.5757" style="stop-color:#6D2D90"/>
		<stop  offset="1" style="stop-color:#662D91"/>
	</linearGradient>
	<path class="st6" d="M339.28,212.12L339.28,212.12c-1.1-3.67-5-5.78-8.67-4.68l-97.97,29.26c-3.67,1.1-5.78,5-4.68,8.67
		c1.1,3.67,5,5.78,8.67,4.68l97.96-29.26C338.27,219.69,340.38,215.79,339.28,212.12z"/>
	<g>
		
			<linearGradient id="SVGID_6_" gradientUnits="userSpaceOnUse" x1="108.1592" y1="178.6119" x2="62.3872" y2="196.9207" gradientTransform="matrix(0.9974 0.0724 -0.0724 0.9974 10.6753 -10.1832)">
			<stop  offset="0.0514" style="stop-color:#FF3481"/>
			<stop  offset="0.5757" style="stop-color:#6D2D90"/>
			<stop  offset="1" style="stop-color:#662D91"/>
		</linearGradient>
		<path class="st7" d="M103.18,184.19L65.72,195.4c-3.65,1.09-7.53-1-8.62-4.65l0,0c-1.09-3.65,1-7.53,4.65-8.62l37.45-11.21
			c3.65-1.09,7.53,1,8.62,4.65l0,0C108.92,179.22,106.82,183.1,103.18,184.19z"/>
		
			<linearGradient id="SVGID_7_" gradientUnits="userSpaceOnUse" x1="53.7988" y1="199.4388" x2="31.4849" y2="208.5932" gradientTransform="matrix(0.9974 0.0724 -0.0724 0.9974 10.6753 -10.1832)">
			<stop  offset="0.0514" style="stop-color:#FF3481"/>
			<stop  offset="0.5757" style="stop-color:#6D2D90"/>
			<stop  offset="1" style="stop-color:#662D91"/>
		</linearGradient>
		<path class="st8" d="M46.98,201.01l-9.5,2.84c-3.65,1.09-7.53-1-8.62-4.65l0,0c-1.09-3.65,1-7.53,4.65-8.62l9.5-2.84
			c3.65-1.09,7.53,1,8.62,4.65l0,0C52.72,196.04,50.62,199.92,46.98,201.01z"/>
	</g>
	<g>
		<path class="st0" d="M36.87,258.7c-3.21-0.23-6.09-2.41-7.07-5.66c-0.61-2.03-0.39-4.19,0.63-6.06c1.01-1.88,2.69-3.25,4.72-3.86
			l21.1-6.49c4.22-1.26,8.67,1.14,9.92,5.35c0.61,2.03,0.39,4.18-0.63,6.06c-1.01,1.88-2.69,3.25-4.72,3.86l-21.1,6.49
			C38.78,258.67,37.81,258.77,36.87,258.7z M58.97,238.31c-0.7-0.05-1.42,0.02-2.14,0.24l-21.1,6.49c-1.53,0.46-2.78,1.48-3.54,2.89
			c-0.76,1.41-0.93,3.02-0.47,4.54c0.45,1.52,1.48,2.77,2.89,3.54c1.41,0.76,3.02,0.93,4.54,0.47l21.1-6.49
			c1.53-0.46,2.78-1.48,3.54-2.89c0.76-1.41,0.93-3.02,0.47-4.54C63.54,240.11,61.37,238.48,58.97,238.31z"/>
	</g>
	<g>
		<path class="st0" d="M299.75,163c-1.11-0.08-2.2-0.4-3.22-0.94c-1.88-1.01-3.25-2.69-3.86-4.72c-1.26-4.21,1.14-8.66,5.35-9.92
			l49.49-14.6c2.03-0.61,4.18-0.38,6.06,0.63c1.88,1.01,3.25,2.69,3.85,4.72c0.61,2.03,0.38,4.18-0.63,6.06
			c-1.01,1.88-2.69,3.25-4.72,3.85l-49.49,14.6C301.65,162.97,300.69,163.07,299.75,163z M350.21,134.5
			c-0.71-0.05-1.43,0.03-2.13,0.24l-49.49,14.6c-3.15,0.94-4.95,4.27-4,7.43c0.46,1.52,1.48,2.78,2.89,3.53
			c1.41,0.76,3.02,0.93,4.54,0.47l49.49-14.6c1.51-0.45,2.77-1.48,3.53-2.89c0.76-1.41,0.93-3.02,0.47-4.54v0
			c-0.46-1.52-1.48-2.77-2.89-3.53C351.86,134.8,351.04,134.57,350.21,134.5z"/>
	</g>
	<path class="st0" d="M46.18,124.4c-3.21-0.23-3.58,4.75-0.36,4.99C49.03,129.62,49.39,124.63,46.18,124.4z"/>
	<path class="st0" d="M15.76,223.58c-3.21-0.23-3.58,4.75-0.36,4.99C18.61,228.8,18.98,223.81,15.76,223.58z"/>
	<path class="st0" d="M365.78,149.72l-0.5-0.04c-1.3-0.09-2.64,0.96-2.67,2.31c-0.04,1.36,0.91,2.57,2.31,2.67l0.5,0.04
		c1.3,0.09,2.64-0.96,2.67-2.31C368.13,151.04,367.18,149.82,365.78,149.72z"/>
	<path class="st0" d="M334.32,82.26l-0.5-0.04c-1.3-0.09-2.64,0.96-2.67,2.31c-0.04,1.36,0.91,2.57,2.31,2.67l0.5,0.04
		c1.3,0.09,2.64-0.96,2.67-2.31C336.67,83.58,335.72,82.36,334.32,82.26z"/>
	<path class="st0" d="M352.01,260.01c-3.21-0.23-3.58,4.75-0.36,4.99C354.85,265.23,355.22,260.24,352.01,260.01z"/>
	<path class="st0" d="M58.52,311.4l-0.5-0.04c-1.3-0.09-2.64,0.96-2.67,2.31c-0.04,1.36,0.91,2.57,2.31,2.67l0.5,0.04
		c1.3,0.09,2.64-0.96,2.67-2.31C60.87,312.72,59.92,311.51,58.52,311.4z"/>
</g>
</svg>
